<?xml version="1.0" encoding="UTF-8"?>
<svg xmlns="http://www.w3.org/2000/svg" xmlns:xlink="http://www.w3.org/1999/xlink" width="115pt" height="115pt" viewBox="0 0 175 175" version="1.1">
<g id="surface14651762">
<path style=" stroke:none;fill-rule:nonzero;fill:#fafafa;fill-opacity:1;" d="M 153.125 63.074219 C 153.125 137.8125 87.5 160.417969 87.5 160.417969 C 87.5 160.417969 21.875 137.8125 21.875 63.074219 C 21.875 53.957031 22.605469 46.300781 23.332031 40.105469 C 24.425781 30.988281 30.625 23.699219 39.375 21.511719 C 50.675781 18.230469 68.542969 14.582031 87.5 14.582031 C 106.457031 14.582031 124.324219 18.230469 135.988281 21.511719 C 144.738281 23.699219 150.9375 31.355469 152.03125 40.105469 C 152.394531 46.300781 153.125 54.324219 153.125 63.074219 Z M 153.125 63.074219 "/>
<path style=" stroke:none;fill-rule:nonzero;fill:#4F46E5;fill-opacity:1;" d="M 87.5 25.519531 C 105.363281 25.519531 122.136719 29.167969 133.074219 32.082031 C 137.449219 33.175781 140.363281 36.824219 141.09375 41.5625 C 141.824219 48.488281 142.1875 55.78125 142.1875 63.074219 C 142.1875 119.949219 100.261719 142.917969 87.5 148.386719 C 74.738281 142.550781 32.8125 119.582031 32.8125 63.074219 C 32.8125 55.78125 33.175781 48.488281 33.90625 41.5625 C 34.269531 36.824219 37.550781 33.175781 41.925781 32.082031 C 52.863281 29.167969 69.636719 25.519531 87.5 25.519531 M 87.5 14.582031 C 68.542969 14.582031 50.675781 18.230469 39.011719 21.511719 C 30.625 23.699219 24.0625 31.355469 23.332031 40.105469 C 22.605469 46.300781 21.875 54.324219 21.875 63.074219 C 21.875 137.8125 87.5 160.417969 87.5 160.417969 C 87.5 160.417969 153.125 137.8125 153.125 63.074219 C 153.125 53.957031 152.394531 46.300781 151.667969 40.105469 C 150.574219 30.988281 144.375 23.699219 135.625 21.511719 C 124.324219 18.230469 106.457031 14.582031 87.5 14.582031 Z M 87.5 14.582031 "/>
<path style=" stroke:none;fill-rule:nonzero;fill:##6366F1;fill-opacity:1;" d="M 83.855469 102.082031 L 91.144531 102.082031 L 91.144531 131.25 L 83.855469 131.25 Z M 83.855469 102.082031 "/>
<path style=" stroke:none;fill-rule:nonzero;fill:#6366F1;fill-opacity:1;" d="M 87.5 36.457031 C 87.5 36.457031 65.625 54.6875 65.625 83.855469 C 65.625 102.8125 77.65625 114.84375 83.855469 120.3125 L 87.5 109.375 L 91.144531 120.3125 C 97.34375 114.84375 109.375 102.8125 109.375 83.855469 C 109.375 54.6875 87.5 36.457031 87.5 36.457031 Z M 87.5 36.457031 "/>
<path style=" stroke:none;fill-rule:nonzero;fill:#4338CA;fill-opacity:1;" d="M 87.5 36.457031 C 87.5 36.457031 65.625 54.6875 65.625 83.855469 C 65.625 102.8125 77.65625 114.84375 83.855469 120.3125 L 87.5 109.375 Z M 87.5 36.457031 "/>
</g>
</svg>
